<svg id="Layer_2" data-name="Layer 2" {...props} viewBox="0 0 657.78 26.79">
  <g id="Layer_1-2" data-name="Layer 1">
    <g>
      <path class="cls-1" d="m5.99,5.25v6.85h11.99v4.81H5.99v9.44H0V.44h19.57v4.81H5.99Z"/>
      <path class="cls-1" d="m24.86.44h5.99v21.02h12.99v4.88h-18.98V.44Z"/>
      <path class="cls-1" d="m68.49,21.54v4.81h-20.06V.44h19.57v4.81h-13.62v5.62h12.03v4.66h-12.03v5.99h14.1Z"/>
      <path class="cls-1" d="m98.05,26.35l-.04-15.54-7.62,12.8h-2.7l-7.59-12.47v15.21h-5.62V.44h4.96l9.69,16.1L98.68.44h4.92l.07,25.9h-5.62Z"/>
      <path class="cls-1" d="m134.61,26.35l-.04-15.54-7.62,12.8h-2.7l-7.59-12.47v15.21h-5.62V.44h4.96l9.69,16.1L135.23.44h4.92l.07,25.9h-5.62Z"/>
      <path class="cls-1" d="m167.65,21.54v4.81h-20.06V.44h19.57v4.81h-13.62v5.62h12.03v4.66h-12.03v5.99h14.1Z"/>
      <path class="cls-1" d="m197.4.44v25.9h-4.92l-12.91-15.73v15.73h-5.92V.44h4.96l12.88,15.73V.44h5.92Z"/>
      <path class="cls-1" d="m236.35,26.79l-3.11-2.89c-2.37,1.85-5.33,2.89-8.66,2.89-5.7,0-9.88-2.96-9.88-7.1,0-3.26,1.74-5.51,5.7-7.73-1.89-1.96-2.66-3.63-2.66-5.48,0-3.77,3.18-6.36,8.07-6.36,4.48,0,7.44,2.29,7.44,5.96,0,2.66-1.55,4.62-5.07,6.55l4.74,4.4c.56-1.15,1-2.52,1.29-4.03l4.63,1.44c-.48,2.22-1.26,4.22-2.37,5.88l3.03,2.81-3.15,3.66Zm-6.51-6.03l-6.25-5.85c-2.37,1.37-3.22,2.55-3.22,4.14,0,1.89,1.78,3.22,4.63,3.22,1.78,0,3.44-.52,4.85-1.52Zm-6.84-14.36c0,1,.41,1.74,2,3.29,2.55-1.37,3.37-2.33,3.37-3.51,0-1.26-.89-2.15-2.55-2.15-1.78,0-2.81,1-2.81,2.37Z"/>
      <path class="cls-1" d="m254.67,13.39c0-7.81,5.99-13.39,14.06-13.39,4.48,0,8.21,1.63,10.66,4.59l-3.85,3.55c-1.74-2-3.92-3.03-6.51-3.03-4.85,0-8.29,3.4-8.29,8.29s3.44,8.29,8.29,8.29c2.59,0,4.77-1.04,6.51-3.07l3.85,3.55c-2.44,3-6.18,4.63-10.69,4.63-8.03,0-14.02-5.59-14.02-13.4Z"/>
      <path class="cls-1" d="m282.45,13.39c0-7.7,5.99-13.39,14.17-13.39s14.17,5.66,14.17,13.39-6.03,13.4-14.17,13.4-14.17-5.7-14.17-13.4Zm22.28,0c0-4.92-3.48-8.29-8.1-8.29s-8.1,3.37-8.1,8.29,3.48,8.29,8.1,8.29,8.1-3.37,8.1-8.29Z"/>
      <path class="cls-1" d="m345.28,20.79h-12.03l-2.29,5.55h-6.14L336.36.44h5.92l11.58,25.9h-6.29l-2.29-5.55Zm-1.89-4.55l-4.11-9.92-4.11,9.92h8.21Z"/>
      <path class="cls-1" d="m357.78.44h11.77c8.47,0,14.28,5.11,14.28,12.95s-5.81,12.95-14.28,12.95h-11.77V.44Zm11.47,20.98c5.14,0,8.51-3.07,8.51-8.03s-3.37-8.03-8.51-8.03h-5.48v16.06h5.48Z"/>
      <path class="cls-1" d="m413.62.44l-11.21,25.9h-5.92L385.31.44h6.48l7.88,18.5,7.99-18.5h5.96Z"/>
      <path class="cls-1" d="m415.06,13.39c0-7.7,5.99-13.39,14.17-13.39s14.17,5.66,14.17,13.39-6.03,13.4-14.17,13.4-14.17-5.7-14.17-13.4Zm22.28,0c0-4.92-3.48-8.29-8.1-8.29s-8.1,3.37-8.1,8.29,3.48,8.29,8.1,8.29,8.1-3.37,8.1-8.29Z"/>
      <path class="cls-1" d="m458.57,16.17l-3.48,3.63v6.55h-5.96V.44h5.96v12.1l11.47-12.1h6.66l-10.73,11.54,11.36,14.36h-6.99l-8.29-10.18Z"/>
      <path class="cls-1" d="m493.65,20.79h-12.03l-2.29,5.55h-6.14L484.73.44h5.92l11.58,25.9h-6.29l-2.29-5.55Zm-1.89-4.55l-4.11-9.92-4.11,9.92h8.21Z"/>
      <path class="cls-1" d="m510.22,5.33h-8.29V.44h22.57v4.88h-8.29v21.02h-5.99V5.33Z"/>
      <path class="cls-1" d="m534.94,5.25v6.85h11.99v4.81h-11.99v9.44h-5.99V.44h19.57v4.81h-13.58Z"/>
      <path class="cls-1" d="m553.81.44h5.99v25.9h-5.99V.44Z"/>
      <path class="cls-1" d="m583.67,26.35l-5-7.22h-5.51v7.22h-5.99V.44h11.21c6.92,0,11.25,3.59,11.25,9.4,0,3.88-1.96,6.73-5.33,8.18l5.81,8.33h-6.44Zm-5.62-21.02h-4.88v9.03h4.88c3.66,0,5.51-1.7,5.51-4.51s-1.85-4.51-5.51-4.51Z"/>
      <path class="cls-1" d="m619.15,26.35l-.04-15.54-7.62,12.8h-2.7l-7.59-12.47v15.21h-5.62V.44h4.96l9.7,16.1,9.55-16.1h4.92l.07,25.9h-5.62Z"/>
      <path class="cls-1" d="m649.19,20.79h-12.03l-2.29,5.55h-6.14l11.54-25.9h5.92l11.58,25.9h-6.29l-2.29-5.55Zm-1.89-4.55l-4.11-9.92-4.11,9.92h8.21Z"/>
    </g>
  </g>
</svg>