<?xml version="1.0" encoding="UTF-8"?>
<svg id="Layer_2" data-name="Layer 2" xmlns="http://www.w3.org/2000/svg" viewBox="0 0 300.09 299.55">
  <defs>
    <style>
      .cls-1 {
        fill: none;
      }
    </style>
  </defs>
  <g id="Layer_1-2" data-name="Layer 1">
    <g>
      <g>
        <path d="m183.96,182.58l-8.42-19.7h16.63l-8.21,19.7Zm-42.17-45.98l8.41-19.7,8.22,19.7h-16.63Zm-25.18,45.98l-8.41-19.69h16.63l-8.22,19.69Zm-42.08-45.98l8.41-19.7,8.22,19.7h-16.63Zm143.21-19.7l8.21,19.7h-16.63l8.42-19.7Zm10.37,24.78l5.81,13.96h6.07l-22.11-51.52-19.23,43.88-4.32,9.79h-21l-1.89-4.39-21.1-49.29-17.29,39.75h-.02l-6.04,13.93h-21l-.91-2.14h0l-22-51.53-22.69,51.52h6l5.94-13.96h20.99l6.07,13.97h.03l17.34,39.71,19.03-44.76,3.8-8.92h21l6.1,13.95h.02l17.4,39.73,22.11-51.52h0l.93-2.16h21Z"/>
        <polygon points="12.29 136.63 9.95 141.68 55.52 141.68 57.77 136.63 12.29 136.63"/>
        <polygon points="53.26 157.82 50.52 162.88 91.53 162.88 89.28 157.82 53.26 157.82"/>
        <polygon points="211.35 157.82 209.01 162.88 250.11 162.88 248.04 157.82 211.35 157.82"/>
        <polygon points="290.71 141.68 288.37 136.63 242.89 136.63 245.14 141.68 290.71 141.68"/>
      </g>
      <rect class="cls-1" width="300.09" height="299.55"/>
    </g>
  </g>
</svg>